<svg width="550" height="200" viewBox="0 0 550 200" fill="none" xmlns="http://www.w3.org/2000/svg">
<path d="M522.919 84.1797H532.146V85.0186H512.136V84.1797H521.961L510.577 52.5469H476.548L465.165 84.1797H471.679C477.118 82.1041 482.794 80.401 488.064 79.2197L488.824 79.0488L489.015 79.8037C489.02 79.8251 489.025 79.8467 489.03 79.8682C489.948 79.6376 490.858 79.4209 491.755 79.2197L492.515 79.0488L492.705 79.8037C492.71 79.8247 492.714 79.8461 492.72 79.8672C493.637 79.6368 494.545 79.4207 495.441 79.2197L496.201 79.0488L496.392 79.8037C496.397 79.8251 496.401 79.8468 496.406 79.8682C497.323 79.6378 498.231 79.4207 499.128 79.2197L499.888 79.0488L500.078 79.8037C502.285 88.5392 499.295 100.662 492.881 108.996C489.661 113.179 485.534 116.468 480.69 117.876C478.46 118.524 476.097 118.768 473.623 118.527C472.424 118.645 471.194 118.65 469.936 118.527C468.737 118.645 467.507 118.65 466.248 118.527C465.025 118.648 463.769 118.649 462.483 118.52L454.243 127.804V197.591H485.254V199.191H441.58V199.189H411.566V197.59H441.579V127.822L432.991 120.911C431.818 121.024 430.646 121.014 429.484 120.893C428.251 121.025 427.018 121.021 425.797 120.893C424.564 121.025 423.33 121.021 422.109 120.893C416.647 121.479 411.166 119.364 406.87 115.85C403.882 113.405 401.408 110.235 399.878 106.75L399.868 107.173H395.653V162.283C395.653 173.45 391.704 183.391 385.576 188.975C384.093 190.3 382.476 191.455 380.761 192.451C374.888 196.159 367.718 197.868 360.637 197.868C360.001 197.868 359.36 197.851 358.716 197.821C358.055 197.851 357.394 197.868 356.734 197.868C356.098 197.868 355.457 197.851 354.813 197.821C354.153 197.851 353.491 197.868 352.831 197.868C352.195 197.868 351.554 197.851 350.91 197.821C350.25 197.851 349.589 197.868 348.929 197.868C340.486 197.868 331.225 195.281 324.553 189.289C318.697 183.978 314.884 174.581 314.884 163.823V107.173H303.173V105.633H340.365V106.586H339.394V107.173H328.653V163.101C328.653 173.586 332.195 182.71 337.914 187.885C342.809 192.27 349.156 194.822 355.409 195.827C361.565 194.857 367.392 192.44 371.942 188.294C377.934 182.983 381.884 173.314 381.884 162.283V107.173H370.173V105.633H399.427C398.048 101.943 397.735 97.9598 398.98 94.1406L399.195 93.4844L399.876 93.5996C400.804 93.7573 401.741 93.9233 402.683 94.0947L402.883 93.4844L403.563 93.5996C404.491 93.7573 405.428 93.9233 406.37 94.0947L406.57 93.4844L407.251 93.5996C408.179 93.7574 409.116 93.9232 410.059 94.0947L410.259 93.4844L410.939 93.5996C420.335 95.1969 430.686 97.4603 437.318 101.108C440.628 102.929 443.167 105.178 444.08 108.006C444.957 110.72 444.269 113.738 441.82 117.06L446.927 121.169L452.428 114.974C447.276 111.884 444.996 108.423 445.267 104.741C445.546 100.947 448.532 97.3161 452.78 94.0713C457.175 90.7147 463.131 87.6142 469.545 85.0186H455.1V84.9717C448.135 84.493 442.326 80.3093 439.169 75.9121C435.335 70.8794 427.545 59.3761 420.236 45.5967C417.96 46.0759 415.324 46.1963 412.568 46.1963H397.949V84.1797H409.932V85.0186H386.566V84.1797H396.991V5.81543H386.566V4.97656H415.084C429.822 4.97656 439.169 12.1662 439.169 25.2266C439.169 35.4114 433.178 43.08 421.315 45.4766C428.385 58.7768 435.574 69.8009 440.008 75.4326C443.123 79.6263 449.234 84.1795 456.423 84.1797H464.206L492.604 5.2168L494.162 4.1377L522.919 84.1797ZM263.279 104.811C289.289 104.811 307.538 125.646 307.538 150.431C307.538 170.623 298.536 184.304 286.303 191.479C279.337 195.824 271.241 197.999 263.125 197.999C262.458 197.999 261.796 197.984 261.139 197.957C260.5 197.984 259.862 197.999 259.223 197.999C258.555 197.999 257.893 197.984 257.236 197.957C256.598 197.984 255.96 197.999 255.321 197.999C254.653 197.999 253.99 197.984 253.333 197.957C252.695 197.984 252.055 197.999 251.416 197.999C225.406 197.999 207.158 177.163 207.158 152.379C207.158 152.234 207.159 152.09 207.16 151.946C207.16 151.895 207.158 151.844 207.158 151.793C207.158 120.472 228.81 104.811 250.599 104.811C250.804 104.811 251.01 104.812 251.215 104.814C251.333 104.814 251.452 104.811 251.57 104.811C252.077 104.811 252.58 104.819 253.081 104.835C253.555 104.82 254.03 104.811 254.504 104.811C254.71 104.811 254.915 104.812 255.12 104.814C255.238 104.814 255.356 104.811 255.474 104.811C255.98 104.811 256.484 104.819 256.984 104.835C257.458 104.82 257.931 104.811 258.405 104.811C258.611 104.811 258.817 104.812 259.021 104.814C259.14 104.814 259.259 104.811 259.377 104.811C259.883 104.811 260.386 104.819 260.887 104.835C261.36 104.82 261.835 104.811 262.309 104.811C262.514 104.811 262.72 104.812 262.925 104.814C263.043 104.814 263.161 104.811 263.279 104.811ZM39.917 104.811C48.36 104.811 56.1224 106.173 60.8887 107.943L61.8418 126.055H60.8398L60.8711 126.642H59.7812L58.8281 109.211C58.2633 109.012 57.6601 108.818 57.0215 108.632L57.9385 126.055H56.9346L56.9658 126.642H55.877L54.9238 109.211C54.3594 109.012 53.7562 108.818 53.1182 108.633L54.0352 126.055H53.0332L53.0645 126.642H51.9746L51.0215 109.211C50.4564 109.011 49.8528 108.818 49.2139 108.632L50.1309 126.055H49.1289L49.1602 126.642H48.0713L47.1182 109.211C43.9516 108.093 39.5744 107.166 34.5537 106.692C31.4977 107.175 28.6549 108.16 26.167 109.577C20.7976 113.015 17.3118 118.589 17.3115 125.51C17.3115 135.995 28.2057 142.805 39.917 148.797C53.8071 156.014 63.6121 161.053 63.6123 175.352C63.6123 183.394 59.8742 189.909 53.251 193.688C49.0811 196.355 43.6424 197.863 37.1758 197.863C36.3932 197.863 35.6151 197.85 34.8418 197.832C34.3253 197.852 33.8019 197.863 33.2715 197.863C32.4893 197.863 31.7114 197.85 30.9385 197.832C30.4224 197.852 29.8992 197.863 29.3691 197.863C28.5866 197.863 27.8085 197.85 27.0352 197.832C26.519 197.852 25.9959 197.863 25.4658 197.863C16.7504 197.863 8.5789 196.773 1.63379 193.505L0 176.211H0.0556641L0 175.624H0.953125L1.3916 180.077L0.970703 175.624H1.92383L3.55762 192.237C4.18127 192.528 4.82848 192.801 5.49512 193.059L3.9043 176.211H3.95996L3.9043 175.624H4.85742L5.30273 180.159L4.875 175.624H5.82812L7.46191 192.237C8.08461 192.528 8.73094 192.8 9.39648 193.058L7.80566 176.211H7.86133L7.80566 175.624H8.75879L9.22559 180.371L8.77734 175.624H9.73145L11.3652 192.237C11.9887 192.528 12.6354 192.801 13.3018 193.059L11.71 176.211H11.7656L11.71 175.624H12.6631L13.127 180.339L12.6816 175.624H13.6348L15.2686 192.237C19.5366 194.229 24.862 195.427 30.5537 195.972C42.0935 194.324 49.7188 186.942 49.8379 175.621C49.6995 162.379 40.878 157.497 26.8271 150.337C15.5244 144.481 3.54102 137.399 3.54102 126.097C3.54102 125.986 3.5432 125.876 3.54492 125.766C3.54356 125.681 3.54102 125.595 3.54102 125.51C3.54147 112.709 15.1167 104.811 27.2363 104.811C27.4386 104.811 27.6404 104.812 27.8418 104.813C27.9632 104.812 28.0846 104.811 28.2061 104.811C28.8183 104.811 29.427 104.819 30.0312 104.833C30.4 104.818 30.7696 104.811 31.1396 104.811C31.3422 104.811 31.5444 104.812 31.7461 104.813C31.8674 104.812 31.9889 104.811 32.1104 104.811C32.7225 104.811 33.3314 104.819 33.9355 104.833C34.3035 104.818 34.6727 104.811 35.042 104.811C35.2449 104.811 35.4474 104.812 35.6494 104.813C35.7707 104.812 35.8922 104.811 36.0137 104.811C36.6259 104.811 37.2346 104.819 37.8389 104.833C38.2072 104.818 38.5766 104.811 38.9463 104.811C39.1488 104.811 39.351 104.812 39.5527 104.813C39.6741 104.812 39.7955 104.811 39.917 104.811ZM525.985 104.811C534.428 104.811 542.19 106.173 546.956 107.943L547.91 126.055H546.906L546.938 126.642H545.849L544.895 109.211C544.33 109.012 543.727 108.818 543.088 108.632L544.005 126.055H543.003L543.034 126.642H541.944L540.991 109.211C540.426 109.012 539.823 108.818 539.185 108.632L540.103 126.055H539.101L539.132 126.642H538.043L537.09 109.211C536.525 109.011 535.92 108.818 535.281 108.632L536.198 126.055H535.196L535.228 126.642H534.138L533.185 109.211C530.018 108.093 525.641 107.166 520.62 106.692C517.568 107.174 514.729 108.157 512.244 109.571C506.869 113.009 503.379 118.585 503.379 125.51C503.379 135.995 514.274 142.805 525.985 148.797C539.875 156.014 549.68 161.053 549.68 175.352C549.68 183.394 545.942 189.909 539.319 193.688C535.149 196.356 529.709 197.863 523.242 197.863C522.46 197.863 521.682 197.85 520.908 197.832C520.392 197.852 519.869 197.863 519.339 197.863C518.557 197.863 517.779 197.85 517.006 197.832C516.49 197.852 515.966 197.863 515.437 197.863C514.654 197.863 513.876 197.85 513.103 197.832C512.586 197.852 512.063 197.863 511.532 197.863C502.817 197.863 494.646 196.773 487.701 193.505L486.067 176.211H486.123L486.067 175.624H487.021L487.466 180.159L487.038 175.624H487.991L489.625 192.237C490.249 192.528 490.896 192.801 491.562 193.059L489.972 176.211H490.027L489.972 175.624H490.925L491.336 179.801L490.941 175.624H491.895L493.529 192.237C494.153 192.528 494.799 192.801 495.465 193.059L493.873 176.211H493.929L493.873 175.624H494.827L495.272 180.159L494.845 175.624H495.798L497.432 192.237C498.055 192.528 498.702 192.801 499.368 193.059L497.777 176.211H497.833L497.777 175.624H498.73L499.197 180.371L498.749 175.624H499.702L501.337 192.237C505.605 194.229 510.93 195.427 516.621 195.972C528.154 194.324 535.777 186.95 535.904 175.641C535.774 162.384 526.952 157.501 512.895 150.337C501.592 144.481 489.607 137.399 489.607 126.097C489.607 125.992 489.61 125.888 489.611 125.784C489.61 125.693 489.607 125.601 489.607 125.51C489.607 123.951 489.779 122.465 490.103 121.058L491.845 116.416C495.786 109.076 504.397 104.811 513.303 104.811C513.505 104.811 513.707 104.812 513.909 104.813C514.031 104.812 514.152 104.811 514.273 104.811C514.886 104.811 515.495 104.819 516.1 104.833C516.468 104.818 516.837 104.811 517.207 104.811C517.41 104.811 517.612 104.812 517.813 104.813C517.935 104.812 518.056 104.811 518.178 104.811C518.79 104.811 519.398 104.819 520.002 104.833C520.37 104.818 520.74 104.811 521.109 104.811C521.312 104.811 521.514 104.812 521.716 104.813C521.837 104.812 521.959 104.811 522.08 104.811C522.693 104.811 523.302 104.819 523.906 104.833C524.274 104.818 524.643 104.811 525.013 104.811C525.216 104.811 525.418 104.812 525.62 104.813C525.742 104.812 525.864 104.811 525.985 104.811ZM443.18 127.804V197.59H445.267V127.822L444.039 126.834L443.18 127.804ZM446.87 127.804V197.59H448.954V127.822L447.729 126.836L446.87 127.804ZM450.557 127.804V197.59H452.643V127.822L451.416 126.835L450.557 127.804ZM101.606 105.633C118.764 105.633 131.565 113.123 131.565 127.966C131.565 136.734 127.775 143.761 120.321 148.042C115.509 151.096 109.026 152.919 100.907 153.201L100.869 152.938C99.6251 153.065 98.3371 153.155 97.0049 153.201L96.9668 152.938C95.7225 153.065 94.4341 153.155 93.1016 153.201L93.0635 152.938C91.8191 153.065 90.5308 153.155 89.1982 153.201L89.0615 152.248C89.0892 152.247 89.1169 152.245 89.1445 152.244L89.0615 151.661C108.502 151.121 117.636 141.347 117.792 128.308C117.643 112.668 103.286 107.497 90.1943 107.188L88.9258 107.173H87.0352V195.647H100.652V196.601H99.6816V197.188H61.417V195.647H73.2646V107.173H61.417V105.633H101.606ZM171.407 105.633C188.157 105.633 198.778 113.804 198.778 128.647C198.778 137.151 195.104 144.11 187.809 148.285C185.249 149.911 182.201 151.168 178.667 151.996C186.644 166.962 194.73 179.353 199.731 185.706C203.272 190.472 210.218 195.647 218.389 195.647H220.976V196.601H220.004V197.188H217.416C216.974 197.187 216.535 197.17 216.101 197.144V197.188H213.514C213.072 197.188 212.634 197.17 212.199 197.144V197.188H209.611C209.169 197.187 208.73 197.17 208.295 197.144V197.188H205.708C197.129 197.188 189.912 192.149 186.099 186.838C181.804 181.201 173.146 168.423 164.945 153.065H151.934V195.647H165.551V196.601H164.579V197.188H126.315V195.647H138.163V107.173H126.315V105.633H171.407ZM256.458 106.72C250.768 107.443 245.477 109.227 240.786 111.963C228.759 119.453 220.928 133.377 220.928 151.793C220.928 173.492 235.547 192.906 257.776 196.022C278.385 193.159 293.651 176.307 293.765 150.72C293.632 128.744 278.845 109.583 256.458 106.72ZM75.3252 195.647H77.1689V107.173H75.3252V195.647ZM79.2295 195.647H81.0713V107.173H79.2295V195.647ZM83.1318 195.647H84.9746V107.173H83.1318V195.647ZM140.223 195.647H142.067V153.065H140.223V195.647ZM144.127 195.647H145.969V153.065H144.127V195.647ZM148.03 195.647H149.872V153.065H148.03V195.647ZM46.7285 154.682C54.6818 159.624 59.7089 165.114 59.709 175.352C59.709 183.395 55.9701 189.909 49.3467 193.688C48.7675 194.059 48.1637 194.407 47.5361 194.731C56.0665 191.837 61.4408 185.122 61.5479 175.641C61.4455 165.191 55.9416 159.944 46.7285 154.682ZM524.98 154.677C532.938 159.62 537.969 165.111 537.969 175.352C537.969 183.394 534.231 189.909 527.607 193.688C527.028 194.059 526.424 194.407 525.797 194.731C534.343 191.832 539.722 185.097 539.81 175.588C539.689 165.169 534.183 159.932 524.98 154.677ZM38.9121 154.677C46.8704 159.62 51.9012 165.11 51.9014 175.352C51.9014 183.39 48.1667 189.902 41.5498 193.683C40.9685 194.055 40.3625 194.404 39.7324 194.73C48.277 191.83 53.6546 185.096 53.7422 175.588C53.6218 165.169 48.1154 159.932 38.9121 154.677ZM532.796 154.683C540.749 159.625 545.775 165.114 545.775 175.352C545.775 183.394 542.037 189.909 535.414 193.688C534.835 194.059 534.232 194.406 533.604 194.73C542.15 191.83 547.528 185.096 547.615 175.588C547.495 165.173 541.993 159.936 532.796 154.683ZM42.8369 154.689C50.7835 159.63 55.8055 165.119 55.8057 175.352C55.8057 183.394 52.0675 189.909 45.4443 193.688C44.8667 194.058 44.2644 194.405 43.6387 194.729C52.1707 191.831 57.5437 185.11 57.6436 175.621C57.5346 165.189 52.0363 159.946 42.8369 154.689ZM528.901 154.688C536.849 159.628 541.872 165.118 541.872 175.352C541.872 183.386 538.142 189.896 531.532 193.677C530.949 194.051 530.339 194.401 529.706 194.729C538.232 191.833 543.604 185.119 543.711 175.641C543.609 165.194 538.108 159.948 528.901 154.688ZM274.945 111.344C287.858 119.4 295.828 134.052 295.828 150.431C295.828 170.623 286.827 184.304 274.594 191.479C272.966 192.494 271.277 193.39 269.54 194.168C286.051 188.557 297.564 172.939 297.67 150.74C297.576 133.98 288.959 118.855 274.945 111.344ZM282.759 111.349C295.667 119.405 303.635 134.055 303.635 150.431C303.635 170.613 294.643 184.291 282.419 191.469C280.788 192.488 279.094 193.386 277.353 194.166C293.859 188.553 305.369 172.935 305.475 150.74C305.38 133.984 296.767 118.862 282.759 111.349ZM278.855 111.349C291.764 119.405 299.732 134.055 299.732 150.431C299.732 170.613 290.74 184.291 278.516 191.469C276.886 192.486 275.195 193.383 273.456 194.163C289.964 188.547 301.472 172.923 301.571 150.72C301.47 133.971 292.858 118.858 278.855 111.349ZM383.943 162.283C383.943 173.45 379.994 183.391 373.866 188.975C372.39 190.294 370.782 191.444 369.076 192.437C368.137 193.031 367.164 193.574 366.163 194.067C369.729 192.759 373.032 190.858 375.846 188.294C381.837 182.983 385.786 173.314 385.786 162.283V107.173H383.943V162.283ZM387.847 162.283C387.847 173.45 383.896 183.391 377.769 188.975C376.292 190.294 374.684 191.445 372.979 192.438C372.039 193.032 371.065 193.574 370.064 194.067C373.631 192.759 376.934 190.858 379.748 188.294C385.74 182.983 389.689 173.314 389.689 162.283V107.173H387.847V162.283ZM391.751 162.283C391.751 173.45 387.802 183.391 381.674 188.975C380.193 190.298 378.578 191.451 376.866 192.446C375.931 193.037 374.964 193.577 373.969 194.067C377.535 192.759 380.838 190.858 383.651 188.294C389.643 182.983 393.592 173.314 393.592 162.283V107.173H391.751V162.283ZM167.575 153.065H167.528C175.318 167.551 183.14 179.505 188.021 185.706C189.822 188.129 192.503 190.657 195.777 192.558C193.429 190.87 191.464 188.875 190.002 186.838C185.707 181.2 177.046 168.417 168.844 153.056C168.424 153.061 168.001 153.065 167.575 153.065ZM172.655 152.885C172.237 152.919 171.812 152.949 171.382 152.972C179.188 167.5 187.033 179.491 191.926 185.706C193.723 188.126 196.4 190.65 199.668 192.55C197.324 190.864 195.364 188.871 193.904 186.838C189.593 181.179 180.884 168.323 172.655 152.885ZM176.29 152.384C175.898 152.466 175.497 152.538 175.088 152.603C182.959 167.296 190.895 179.439 195.829 185.706C197.627 188.126 200.303 190.65 203.57 192.55C201.227 190.864 199.267 188.871 197.807 186.838C193.449 181.118 184.597 168.044 176.29 152.384ZM320.847 163.101C320.847 173.586 324.387 182.71 330.106 187.885C331.686 189.3 333.417 190.523 335.247 191.565C334.242 190.869 333.275 190.112 332.358 189.289C326.503 183.978 322.689 174.581 322.689 163.823V107.173H320.847V163.101ZM316.943 163.101C316.943 173.586 320.485 182.71 326.204 187.885C327.781 189.298 329.51 190.519 331.337 191.561C330.334 190.865 329.369 190.11 328.455 189.289C322.599 183.978 318.787 174.581 318.787 163.823V107.173H316.943V163.101ZM324.751 163.101C324.751 173.586 328.292 182.71 334.011 187.885C335.587 189.297 337.315 190.517 339.141 191.559C338.139 190.864 337.174 190.11 336.261 189.289C330.405 183.978 326.592 174.581 326.592 163.823V107.173H324.751V163.101ZM236.384 108.639C233.814 109.512 231.364 110.627 229.061 111.973C217.042 119.465 209.219 133.385 209.219 151.793C209.219 168.225 217.604 183.344 231.326 191.07C218.78 182.936 211.062 168.494 211.062 152.379C211.063 152.234 211.064 152.09 211.064 151.946C211.064 151.895 211.063 151.844 211.062 151.793C211.063 129.41 222.121 115.026 236.384 108.639ZM244.183 108.642C241.615 109.514 239.169 110.629 236.867 111.973C224.849 119.465 217.025 133.385 217.025 151.793C217.025 168.221 225.406 183.337 239.122 191.065C226.58 182.93 218.867 168.49 218.867 152.379C218.867 152.234 218.868 152.09 218.869 151.946C218.869 151.895 218.867 151.844 218.867 151.793C218.867 129.414 229.923 115.03 244.183 108.642ZM240.274 108.645C237.706 109.518 235.259 110.632 232.957 111.977C220.943 119.47 213.122 133.389 213.122 151.793C213.122 168.219 221.502 183.333 235.216 191.062C222.676 182.927 214.965 168.489 214.965 152.379C214.965 152.234 214.966 152.09 214.967 151.946C214.967 151.895 214.965 151.844 214.965 151.793C214.965 129.416 226.017 115.035 240.274 108.645ZM140.223 151.525H142.067V107.173H140.223V151.525ZM144.127 151.525H145.969V107.173H144.127V151.525ZM148.03 151.525H149.872V107.173H148.03V151.525ZM151.934 151.525H155.866C175.328 151.525 184.862 142.27 185.005 128.952C184.87 115.187 174.875 107.42 159.469 107.179L158.727 107.173H151.934V151.525ZM110.879 110.94C116.482 114.666 119.856 120.347 119.856 127.966C119.856 136.734 116.065 143.761 108.611 148.042C107.805 148.554 106.952 149.032 106.052 149.474C116.552 145.818 121.586 137.95 121.695 128.29C121.607 119.581 117.11 114.121 110.879 110.94ZM114.786 110.942C120.388 114.668 123.76 120.349 123.76 127.966C123.76 136.733 119.97 143.758 112.519 148.039C111.711 148.552 110.857 149.032 109.955 149.474C120.445 145.822 125.479 137.964 125.598 128.316C125.518 119.594 121.021 114.127 114.786 110.942ZM118.69 110.944C124.291 114.67 127.662 120.349 127.662 127.966C127.662 136.734 123.872 143.761 116.418 148.042C115.611 148.554 114.758 149.032 113.857 149.474C124.359 145.818 129.393 137.948 129.501 128.286C129.411 119.582 124.917 114.125 118.69 110.944ZM178.674 110.811C184.042 114.703 187.068 120.725 187.068 128.647C187.068 137.144 183.398 144.099 176.114 148.275C175.612 148.595 175.09 148.901 174.55 149.191C184.091 145.639 188.814 138.287 188.908 128.933C188.821 120.55 185.075 114.395 178.674 110.811ZM182.585 110.815C187.949 114.708 190.973 120.728 190.973 128.647C190.973 137.148 187.3 144.106 180.01 148.281C179.511 148.599 178.992 148.902 178.456 149.19C187.99 145.639 192.713 138.293 192.812 128.946C192.728 120.56 188.984 114.402 182.585 110.815ZM186.492 110.818C191.854 114.711 194.876 120.731 194.876 128.647C194.876 137.148 191.203 144.106 183.913 148.281C183.414 148.599 182.895 148.901 182.358 149.19C191.897 145.637 196.619 138.286 196.713 128.933C196.625 120.556 192.884 114.403 186.492 110.818ZM19.1729 107.543C17.4941 108.064 15.9094 108.749 14.4473 109.583C9.08287 113.022 5.60084 118.593 5.60059 125.51C5.60059 134.013 12.7651 140.099 21.7197 145.291C13.8549 140.369 7.44434 134.363 7.44434 126.097C7.44434 125.992 7.44671 125.888 7.44824 125.784C7.44667 125.693 7.44434 125.601 7.44434 125.51C7.44463 117.154 12.3769 110.888 19.1729 107.543ZM505.241 107.543C503.566 108.063 501.983 108.745 500.523 109.577C496.254 112.311 493.176 116.395 492.094 121.434L492.126 121.972H491.987C491.778 123.106 491.668 124.287 491.668 125.51C491.668 134.013 498.833 140.099 507.787 145.291C499.922 140.369 493.512 134.362 493.512 126.097C493.512 125.992 493.514 125.888 493.516 125.784C493.514 125.693 493.512 125.601 493.512 125.51C493.512 117.154 498.445 110.888 505.241 107.543ZM26.9805 107.543C25.3089 108.062 23.7304 108.742 22.2734 109.571C16.8985 113.009 13.4085 118.585 13.4082 125.51C13.4082 134.013 20.5716 140.098 29.5254 145.29C21.6611 140.368 15.251 134.362 15.251 126.097C15.251 125.992 15.2533 125.888 15.2549 125.784C15.2533 125.693 15.251 125.601 15.251 125.51C15.2513 117.154 20.184 110.888 26.9805 107.543ZM513.045 107.544C511.37 108.064 509.789 108.746 508.33 109.577C502.961 113.015 499.475 118.589 499.475 125.51C499.475 134.008 506.63 140.091 515.577 145.281C507.72 140.361 501.317 134.357 501.317 126.097C501.317 125.992 501.32 125.888 501.321 125.784C501.32 125.693 501.317 125.601 501.317 125.51C501.318 117.155 506.25 110.889 513.045 107.544ZM509.14 107.545C507.462 108.066 505.879 108.75 504.418 109.583C499.054 113.022 495.572 118.593 495.571 125.51C495.571 134.007 502.727 140.09 511.673 145.28C503.816 140.36 497.414 134.357 497.414 126.097C497.414 125.992 497.416 125.888 497.418 125.784C497.416 125.693 497.414 125.601 497.414 125.51C497.414 117.156 502.345 110.89 509.14 107.545ZM23.0703 107.545C21.3975 108.064 19.818 108.747 18.3604 109.577C12.991 113.015 9.50514 118.589 9.50488 125.51C9.50488 134.002 16.6519 140.083 25.5908 145.271C17.7402 140.353 11.3467 134.352 11.3467 126.097C11.3467 125.986 11.3489 125.876 11.3506 125.766C11.3492 125.681 11.3467 125.595 11.3467 125.51C11.347 117.156 16.2766 110.89 23.0703 107.545ZM445.103 125.637L446.008 126.365L446.48 125.832L445.575 125.104L445.103 125.637ZM448.791 125.638L449.694 126.364L450.167 125.83L449.265 125.104L448.791 125.638ZM452.479 125.637L453.382 126.363L460.594 118.237C460.168 118.153 459.741 118.054 459.31 117.941L452.479 125.637ZM435.976 120.346C435.69 120.427 435.404 120.502 435.117 120.567L442.318 126.363L442.791 125.83L435.976 120.346ZM446.639 123.905L447.544 124.634L448.017 124.1L447.111 123.371L446.639 123.905ZM450.327 123.905L451.23 124.633L457.624 117.43C457.239 117.297 456.852 117.152 456.463 116.995L450.327 123.905ZM438.49 119.401C438.246 119.516 438.002 119.624 437.757 119.726L443.854 124.632L444.327 124.099L438.49 119.401ZM448.175 122.174L449.08 122.901L454.924 116.318C454.569 116.148 454.212 115.968 453.854 115.778L448.175 122.174ZM440.668 118.187C440.456 118.325 440.242 118.457 440.027 118.585L445.391 122.9L445.863 122.367L440.668 118.187ZM436.979 118.187C436.813 118.295 436.645 118.398 436.478 118.5C436.68 118.428 436.882 118.351 437.083 118.27L436.979 118.187ZM429.604 118.187C429.44 118.294 429.273 118.397 429.107 118.498C429.308 118.426 429.508 118.351 429.707 118.27L429.604 118.187ZM433.292 118.187C433.127 118.294 432.959 118.397 432.793 118.498C432.994 118.426 433.195 118.35 433.395 118.269L433.292 118.187ZM410.96 97.4473C410.255 103.716 413.653 110.28 418.947 114.611C420.982 116.276 423.267 117.584 425.665 118.408C426.552 118.073 427.428 117.648 428.286 117.126L418.16 108.978L418.662 108.354L419.163 107.73L429.51 116.057C429.654 115.86 429.79 115.665 429.919 115.473L421.848 108.978L422.35 108.354L422.851 107.73L430.745 114.083C430.861 113.86 430.968 113.642 431.062 113.426L425.535 108.978L426.037 108.354L426.538 107.73L431.605 111.809C431.668 111.534 431.712 111.266 431.74 111.003L429.224 108.978L429.726 108.354L430.227 107.73L431.588 108.825C431.559 108.715 431.529 108.606 431.494 108.498C430.77 106.254 428.671 104.264 425.483 102.511C421.667 100.411 416.509 98.7711 410.96 97.4473ZM407.382 96.6436C406.275 103.149 409.738 110.094 415.259 114.611C417.096 116.114 419.136 117.326 421.279 118.154C420.106 117.481 418.983 116.708 417.934 115.85C412.312 111.25 408.51 104.087 409.388 97.082C408.723 96.9321 408.054 96.7851 407.382 96.6436ZM400.304 95.2979C398.431 102.175 401.98 109.781 407.884 114.611C409.72 116.113 411.759 117.325 413.901 118.153C412.728 117.481 411.607 116.708 410.558 115.85C404.55 110.935 400.621 103.093 402.259 95.6445C401.605 95.526 400.953 95.4101 400.304 95.2979ZM403.834 95.9355C402.339 102.641 405.849 109.93 411.571 114.611C413.407 116.113 415.446 117.324 417.588 118.152C416.415 117.48 415.294 116.708 414.245 115.85C408.42 111.083 404.548 103.566 405.812 96.3223C405.154 96.1902 404.494 96.0605 403.834 95.9355ZM430.757 117.06L431.312 117.507C431.534 117.386 431.754 117.259 431.974 117.126L431.168 116.478C431.036 116.67 430.9 116.865 430.757 117.06ZM438.132 117.06L438.688 117.507C438.909 117.386 439.13 117.259 439.35 117.126L438.544 116.478C438.412 116.67 438.275 116.865 438.132 117.06ZM434.444 117.06L435 117.506C435.221 117.385 435.442 117.259 435.661 117.126L434.855 116.478C434.724 116.67 434.588 116.865 434.444 117.06ZM488.059 83.9775C479.239 86.9235 470.594 90.9299 464.815 95.3428C460.637 98.534 458.151 101.792 457.926 104.859C457.849 105.905 458.035 106.978 458.555 108.066L466.279 99.3662L467.477 100.429L459.429 109.494C459.652 109.793 459.903 110.092 460.182 110.392L469.97 99.3662L471.167 100.429L461.342 111.497C461.624 111.738 461.926 111.979 462.247 112.22L473.656 99.3662L474.854 100.429L463.572 113.139C463.891 113.344 464.224 113.549 464.573 113.754L477.343 99.3662L478.54 100.429L466.013 114.544C467.321 115.215 468.601 115.738 469.851 116.128C474.003 114.738 477.633 111.81 480.55 108.02C485.82 101.172 488.635 91.6928 488.059 83.9775ZM432.346 114.458C432.243 114.672 432.132 114.888 432.014 115.104L433.197 116.057C433.341 115.86 433.477 115.665 433.606 115.473L432.346 114.458ZM436.034 114.458C435.931 114.672 435.821 114.888 435.702 115.104L436.885 116.057C437.029 115.86 437.165 115.664 437.294 115.472L436.034 114.458ZM433.63 101.108C436.94 102.929 439.478 105.178 440.392 108.006C441.093 110.178 440.791 112.543 439.389 115.104L440.573 116.057C442.8 113.015 443.218 110.543 442.558 108.498C441.833 106.254 439.735 104.264 436.547 102.511C435.618 102 434.61 101.517 433.536 101.059C433.567 101.076 433.599 101.091 433.63 101.108ZM491.637 82.8428C490.967 83.044 490.295 83.2516 489.624 83.4658C490.362 91.7081 487.376 101.775 481.817 108.996C479.661 111.798 477.096 114.196 474.183 115.899C478.068 114.431 481.474 111.613 484.24 108.02C489.772 100.832 492.597 90.7456 491.637 82.8428ZM498.703 80.958C498.052 81.1091 497.397 81.2693 496.736 81.4355C498.221 90.0016 495.218 101.17 489.194 108.996C487.039 111.796 484.477 114.194 481.565 115.896C485.447 114.428 488.85 111.61 491.613 108.02C497.596 100.247 500.417 89.0833 498.703 80.958ZM495.181 81.8379C494.521 82.0138 493.859 82.1969 493.194 82.3867C494.31 90.8149 491.311 101.456 485.508 108.996C483.353 111.796 480.79 114.194 477.879 115.896C481.76 114.428 485.163 111.61 487.927 108.02C493.696 100.524 496.524 89.8747 495.181 81.8379ZM454.949 114.544C455.313 114.73 455.674 114.904 456.033 115.068L456.118 114.974C455.774 114.767 455.442 114.558 455.123 114.348L454.949 114.544ZM458.64 114.544C459.002 114.73 459.363 114.904 459.721 115.067L459.805 114.974C459.461 114.767 459.13 114.558 458.812 114.349L458.64 114.544ZM462.326 114.544C462.689 114.73 463.049 114.904 463.407 115.067L463.491 114.974C463.147 114.767 462.817 114.558 462.498 114.349L462.326 114.544ZM433.168 112.151C433.112 112.4 433.045 112.651 432.966 112.903L434.433 114.083C434.548 113.86 434.655 113.641 434.75 113.425L433.168 112.151ZM429.942 101.108C433.253 102.929 435.791 105.178 436.704 108.006C437.2 109.541 437.195 111.174 436.654 112.903L438.12 114.083C439.242 111.921 439.38 110.082 438.869 108.498C438.145 106.254 436.046 104.264 432.858 102.511C431.931 102.001 430.925 101.519 429.854 101.061C429.883 101.077 429.913 101.092 429.942 101.108ZM465.812 88.3682C461.2 90.4846 457.018 92.8486 453.752 95.3428C449.573 98.534 447.088 101.791 446.862 104.859C446.653 107.706 448.388 110.757 453.51 113.754L453.807 113.418C450.285 110.738 448.731 107.817 448.957 104.741C449.236 100.947 452.222 97.3161 456.471 94.0713C459.103 92.0606 462.296 90.142 465.812 88.3682ZM456.196 113.138C456.515 113.343 456.85 113.549 457.2 113.754L457.496 113.42C457.179 113.179 456.878 112.935 456.593 112.69L456.196 113.138ZM459.886 113.139C460.204 113.344 460.537 113.549 460.887 113.754L461.183 113.419C460.866 113.178 460.566 112.936 460.281 112.691L459.886 113.139ZM457.653 111.495C457.936 111.737 458.238 111.978 458.561 112.22L459.117 111.592C458.84 111.301 458.583 111.008 458.348 110.712L457.653 111.495ZM469.477 88.3789C464.875 90.4924 460.702 92.8531 457.442 95.3428C453.264 98.534 450.778 101.791 450.553 104.859C450.379 107.221 451.545 109.722 454.872 112.218L455.429 111.59C453.367 109.427 452.468 107.131 452.644 104.741C452.923 100.947 455.909 97.3161 460.157 94.0713C462.785 92.0647 465.97 90.1497 469.477 88.3789ZM426.255 101.108C429.565 102.929 432.103 105.178 433.017 108.006C433.253 108.738 433.374 109.492 433.379 110.268L435.293 111.808C435.568 110.592 435.503 109.494 435.182 108.498C434.457 106.254 432.359 104.264 429.171 102.511C428.243 102 427.235 101.517 426.161 101.059C426.192 101.076 426.224 101.091 426.255 101.108ZM473.157 88.3818C468.558 90.4947 464.388 92.8542 461.129 95.3428C456.95 98.534 454.465 101.791 454.239 104.859C454.108 106.644 454.741 108.508 456.493 110.39L457.418 109.347C456.569 107.86 456.214 106.321 456.33 104.741C456.609 100.947 459.595 97.3161 463.844 94.0713C466.47 92.0659 469.653 90.1517 473.157 88.3818ZM22.7285 4.97656H89.3496L89.2305 0.902344H90.0684L91.1475 19.3555H90.3086L89.4697 5.81543H56.5186V84.1797H66.8232V85.0186H45.2549V84.1797H55.5596V5.81543H22.7285L21.8896 19.3555H21.0508L22.1289 0.902344H22.9678L22.7285 4.97656ZM146.94 5.81543L146.462 19.5947H145.623L146.102 5.81543H107.399V42.7207H136.756V32.5361H137.595V53.8643H136.756V43.5596H107.399V84.1797H146.94L151.015 67.5244H151.854L147.66 85.0186H96.1357V84.1797H106.44V5.81543H96.1357V4.97656H146.94V5.81543ZM207.336 83.3408L239.449 4.97656H253.349V5.81543H240.887L246.878 84.1797H257.183V85.0186H235.974V84.1797H245.919L239.928 6.29492L207.936 84.4199H206.737L177.141 6.29492L170.071 84.1797H180.017V85.0186H158.808V84.1797H169.112L176.302 5.81543H163.841V4.97656H177.62L207.336 83.3408ZM288.958 4.97656C304.056 4.97656 315.319 11.5674 315.319 24.6279C315.319 37.2091 306.452 45.7162 289.198 46.3154L289.078 45.4766C306.333 44.9973 314.36 36.2506 314.36 24.6279C314.36 10.2494 300.82 5.81543 288.958 5.81543H276.137V84.1797H288.119V85.0186H264.754V84.1797H275.179V5.81543H264.754V4.97656H288.958ZM372.662 5.81543L372.183 19.5947H371.344L371.823 5.81543H333.12V42.7207H362.478V32.5361H363.316V53.8643H362.478V43.5596H333.12V84.1797H372.662L376.736 67.5244H377.575L373.381 85.0186H321.857V84.1797H332.162V5.81543H321.857V4.97656H372.662V5.81543ZM476.787 51.708H510.218L493.562 5.2168L476.787 51.708ZM397.949 45.3574H412.568C429.823 45.3573 438.21 37.089 438.21 25.2266C438.21 12.7653 429.103 5.81543 415.084 5.81543H397.949V45.3574Z" fill="black"/>
</svg>
