<svg width="689" height="218" viewBox="0 0 689 218" fill="none" xmlns="http://www.w3.org/2000/svg">
<path d="M326.034 99.6914C358.968 99.6914 382.073 126.073 382.073 157.455C382.073 197.113 354.658 216.942 327.069 216.942C326.563 216.942 326.058 216.936 325.557 216.924C325.091 216.935 324.626 216.942 324.16 216.942C323.654 216.942 323.149 216.936 322.647 216.924C322.182 216.935 321.717 216.942 321.251 216.942C320.745 216.942 320.24 216.936 319.738 216.924C319.273 216.935 318.807 216.942 318.342 216.942C285.408 216.942 262.303 190.561 262.303 159.179C262.303 119.521 289.718 99.6916 317.307 99.6914C317.807 99.6914 318.305 99.6979 318.8 99.71C319.272 99.6983 319.744 99.6914 320.216 99.6914C320.716 99.6914 321.214 99.6979 321.709 99.71C322.181 99.6983 322.653 99.6914 323.125 99.6914C323.625 99.6914 324.123 99.6979 324.618 99.71C325.09 99.6983 325.562 99.6914 326.034 99.6914ZM43.2129 99.6914C53.9033 99.6914 63.7316 101.416 69.7666 103.657L70.9736 126.59H69.5947L68.3877 104.52C67.9057 104.349 67.401 104.183 66.876 104.021L68.0645 126.59H66.6855L65.4785 104.52C64.9965 104.349 64.4918 104.183 63.9668 104.021L65.1553 126.59H63.7764L62.5693 104.52C62.0873 104.349 61.5827 104.183 61.0576 104.021L62.2461 126.59H60.8672L59.6602 104.52C54.867 102.828 47.8835 101.483 39.9355 101.048C25.7611 102.337 14.5901 111.958 14.5898 125.9C14.5898 139.177 28.3841 147.799 43.2129 155.386C60.8004 164.524 73.2147 170.905 73.2148 189.01C73.2146 205.39 60.9722 216.771 40.9707 216.771C40.3677 216.771 39.7667 216.765 39.168 216.757C38.8022 216.765 38.4337 216.771 38.0625 216.771C37.4593 216.771 36.8577 216.765 36.2588 216.757C35.893 216.765 35.5245 216.771 35.1533 216.771C34.5501 216.771 33.9486 216.765 33.3496 216.757C32.9838 216.765 32.6153 216.771 32.2441 216.771C21.2089 216.771 10.8631 215.391 2.06934 211.253L0 189.354H1.20703L3.27637 210.391C3.8257 210.647 4.38975 210.891 4.96582 211.127L2.90918 189.354H4.11621L6.18457 210.391C6.7338 210.647 7.29806 210.891 7.87402 211.127L5.81836 189.354H7.02539L9.09375 210.391C9.64301 210.647 10.2072 210.891 10.7832 211.127L8.72754 189.354H9.93359L12.0029 210.391C18.4929 213.419 26.9133 214.998 35.75 215.435C52.1114 214.227 63.1082 204.482 63.1084 189.01C63.1082 171.94 51.9002 165.731 33.9678 156.593C19.6564 149.178 4.4834 140.212 4.4834 125.9C4.48369 109.692 19.1394 99.6915 34.4854 99.6914C35.1056 99.6914 35.7231 99.6966 36.3369 99.708C36.689 99.6975 37.0416 99.6914 37.3945 99.6914C38.0148 99.6914 38.6322 99.6966 39.2461 99.708C39.5981 99.6975 39.9508 99.6914 40.3037 99.6914C40.9237 99.6914 41.5407 99.6966 42.1543 99.708C42.5066 99.6975 42.8596 99.6914 43.2129 99.6914ZM423.638 101.933H408.81V173.491C408.81 186.768 413.292 198.321 420.534 204.873C427.679 211.274 437.267 214.588 446.3 215.375C455.441 214.612 464.279 211.468 470.95 205.39C478.537 198.665 483.537 186.423 483.537 172.456V101.933H468.709V100.726H502.899L502.954 101.933H493.645V172.456C493.645 186.595 488.644 199.182 480.885 206.252C472.781 213.494 461.572 216.77 450.537 216.771C450.061 216.771 449.583 216.761 449.103 216.748C448.611 216.761 448.119 216.771 447.628 216.771C447.152 216.771 446.673 216.761 446.193 216.748C445.702 216.761 445.21 216.771 444.719 216.771C444.242 216.771 443.764 216.761 443.284 216.748C442.793 216.761 442.301 216.771 441.81 216.771C431.119 216.77 419.394 213.494 410.945 205.907C403.531 199.182 398.702 187.285 398.702 173.663V101.933H383.874V100.726H423.638V101.933ZM658.668 99.6914C669.358 99.6915 679.187 101.416 685.222 103.657L686.429 126.59H685.049L683.842 104.52C683.36 104.35 682.856 104.184 682.331 104.021L683.52 126.59H682.14L680.933 104.52C680.451 104.35 679.947 104.184 679.422 104.021L680.61 126.59H679.23L678.023 104.52C677.542 104.35 677.037 104.184 676.513 104.021L677.701 126.59H676.321L675.115 104.52C670.322 102.828 663.338 101.483 655.391 101.048C641.216 102.337 630.044 111.958 630.044 125.9C630.044 139.177 643.839 147.799 658.668 155.386C676.255 164.524 688.67 170.905 688.67 189.01C688.67 205.39 676.427 216.771 656.426 216.771C655.822 216.771 655.221 216.765 654.622 216.757C654.256 216.765 653.888 216.771 653.517 216.771C652.914 216.771 652.313 216.765 651.714 216.757C651.348 216.765 650.979 216.771 650.607 216.771C650.004 216.771 649.403 216.765 648.805 216.757C648.439 216.765 648.07 216.771 647.698 216.771C636.663 216.77 626.317 215.391 617.523 211.253L615.454 189.354H616.661L618.73 210.391C619.28 210.647 619.844 210.891 620.42 211.127L618.363 189.354H619.57L621.64 210.391C622.189 210.647 622.753 210.891 623.329 211.127L621.272 189.354H622.479L624.549 210.391C625.098 210.647 625.662 210.891 626.238 211.127L624.182 189.354H625.389L627.458 210.391C633.948 213.419 642.368 214.998 651.205 215.435C667.566 214.227 678.563 204.481 678.563 189.01C678.563 171.94 667.355 165.731 649.423 156.593C635.111 149.178 619.938 140.212 619.938 125.9C619.938 109.692 634.594 99.6914 649.94 99.6914C650.56 99.6914 651.177 99.6966 651.791 99.708C652.143 99.6975 652.496 99.6914 652.85 99.6914C653.47 99.6914 654.087 99.6966 654.7 99.708C655.052 99.6975 655.406 99.6914 655.759 99.6914C656.379 99.6914 656.996 99.6966 657.609 99.708C657.962 99.6975 658.315 99.6914 658.668 99.6914ZM121.324 100.726C143.05 100.726 159.258 110.21 159.259 129.004C159.259 147.109 146.499 159.352 121.669 160.214L121.646 160.056C120.702 160.125 119.741 160.18 118.76 160.214L118.737 160.056C117.794 160.125 116.832 160.18 115.851 160.214L115.828 160.056C114.885 160.125 113.922 160.18 112.941 160.214L112.77 159.007C137.599 158.317 149.151 145.729 149.151 129.004C149.151 108.313 129.667 101.933 112.597 101.933H102.874V214.701H120.117V215.908H77.7666V214.701H92.7676V101.933H77.7666V100.726H121.324ZM209.704 100.726C230.913 100.726 244.362 111.072 244.362 129.866C244.362 144.523 235.741 155.558 218.671 159.007C228.844 178.146 239.189 194.01 245.569 202.114C250.053 208.149 258.847 214.701 269.192 214.701H272.469V215.908H260.465C249.602 215.908 240.464 209.528 235.636 202.804C230.195 195.663 219.223 179.468 208.834 160.007C207.93 160.03 207.011 160.041 206.083 160.041H185.047V214.701H202.29V215.908H159.939V214.701H174.94V101.933H159.939V100.726H209.704ZM321.662 101.058C293.624 103.12 272.41 125.066 272.409 159.179C272.409 187.827 292.532 213.33 322.721 215.574C350.755 213.508 371.967 191.565 371.967 157.455C371.967 128.48 351.847 103.278 321.662 101.058ZM94.1475 214.701H95.6768V101.933H94.1475V214.701ZM97.0557 214.701H98.5859V101.933H97.0557V214.701ZM99.9648 214.701H101.495V101.933H99.9648V214.701ZM176.32 214.701H177.85V160.041H176.32V214.701ZM179.229 214.701H180.759V160.041H179.229V214.701ZM182.138 214.701H183.668V160.041H182.138V214.701ZM22.5811 102.988C12.7551 106.664 5.8625 114.949 5.8623 125.9C5.8623 139.177 19.6566 147.799 34.4854 155.386C52.0729 164.524 64.4881 170.905 64.4883 189.01C64.4881 199.511 59.4562 207.956 50.5752 212.666C60.135 208.576 66.0174 200.325 66.0176 189.01C66.0174 171.94 54.8094 165.731 36.877 156.593C22.5655 149.178 7.3916 140.212 7.3916 125.9C7.39179 115.183 13.802 107.181 22.5811 102.988ZM25.4912 102.987C15.6646 106.663 8.77168 114.949 8.77148 125.9C8.77148 139.177 22.5658 147.799 37.3945 155.386C54.9821 164.524 67.3973 170.905 67.3975 189.01C67.3973 199.511 62.3654 207.956 53.4844 212.666C63.0442 208.576 68.9266 200.325 68.9268 189.01C68.9266 171.94 57.7186 165.731 39.7861 156.593C25.4747 149.178 10.3008 140.212 10.3008 125.9C10.301 115.182 16.7115 107.179 25.4912 102.987ZM28.4004 102.987C18.5738 106.663 11.6809 114.949 11.6807 125.9C11.6807 139.177 25.4749 147.799 40.3037 155.386C57.8913 164.524 70.3065 170.905 70.3066 189.01C70.3065 199.511 65.2745 207.956 56.3936 212.666C65.9533 208.576 71.8358 200.324 71.8359 189.01C71.8358 171.94 60.6277 165.731 42.6953 156.593C28.3838 149.178 13.21 140.212 13.21 125.9C13.2102 115.182 19.6206 107.179 28.4004 102.987ZM643.853 102.988C634.027 106.664 627.136 114.95 627.136 125.9C627.136 139.177 640.93 147.799 655.759 155.386C673.346 164.524 685.761 170.905 685.761 189.01C685.761 199.51 680.73 207.956 671.85 212.666C681.409 208.575 687.291 200.324 687.291 189.01C687.291 171.94 676.083 165.731 658.15 156.593C643.839 149.178 628.665 140.212 628.665 125.9C628.665 115.183 635.074 107.181 643.853 102.988ZM638.034 102.988C628.209 106.665 621.318 114.95 621.317 125.9C621.317 139.177 635.112 147.799 649.94 155.386C667.528 164.524 679.942 170.905 679.942 189.01C679.942 199.51 674.911 207.955 666.031 212.665C675.59 208.574 681.472 200.324 681.473 189.01C681.473 171.94 670.264 165.731 652.332 156.593C638.021 149.178 622.847 140.212 622.847 125.9C622.847 115.183 629.256 107.181 638.034 102.988ZM640.943 102.988C631.118 106.664 624.227 114.95 624.227 125.9C624.227 139.177 638.021 147.799 652.85 155.386C670.437 164.524 682.851 170.905 682.852 189.01C682.851 199.51 677.821 207.955 668.94 212.665C678.499 208.574 684.382 200.324 684.382 189.01C684.382 171.94 673.174 165.731 655.241 156.593C640.93 149.178 625.756 140.212 625.756 125.9C625.756 115.183 632.165 107.181 640.943 102.988ZM342.027 105.261C361.225 114.62 373.347 134.726 373.347 157.455C373.347 185.84 359.301 204.065 341.201 212.134C361.156 204.451 374.876 184.888 374.876 157.455C374.876 134.514 362.262 113.937 342.027 105.261ZM344.937 105.261C364.134 114.62 376.255 134.726 376.255 157.455C376.255 185.84 362.21 204.065 344.11 212.134C364.065 204.451 377.785 184.888 377.785 157.455C377.785 134.514 365.172 113.937 344.937 105.261ZM347.846 105.261C367.043 114.62 379.164 134.726 379.164 157.455C379.164 185.84 365.119 204.065 347.02 212.134C366.974 204.451 380.694 184.888 380.694 157.455C380.694 134.514 368.081 113.937 347.846 105.261ZM210.447 159.95C220.457 178.667 230.567 194.144 236.842 202.114C239.477 205.661 243.602 209.383 248.654 211.853C244.427 209.42 240.95 206.155 238.544 202.804C233.091 195.647 222.085 179.397 211.676 159.88C211.27 159.907 210.861 159.931 210.447 159.95ZM214.444 159.619C214.052 159.668 213.654 159.714 213.251 159.753C223.295 178.558 233.454 194.116 239.751 202.114C242.386 205.661 246.51 209.383 251.562 211.853C247.336 209.42 243.859 206.155 241.453 202.804C235.976 195.615 224.894 179.253 214.444 159.619ZM217.119 159.179C216.743 159.258 216.359 159.329 215.97 159.396C226.076 178.361 236.324 194.065 242.66 202.114C245.295 205.661 249.42 209.383 254.473 211.853C250.246 209.42 246.768 206.155 244.362 202.804C238.845 195.562 227.637 179.008 217.119 159.179ZM484.917 172.456C484.917 186.595 479.916 199.182 472.157 206.252C469.868 208.298 467.331 210.026 464.62 211.454C467.981 209.906 471.106 207.899 473.859 205.39C481.446 198.665 486.446 186.422 486.446 172.456V101.933H484.917V172.456ZM487.826 172.456C487.826 186.595 482.825 199.182 475.066 206.252C472.777 208.297 470.24 210.026 467.529 211.454C470.89 209.906 474.015 207.899 476.769 205.39C484.355 198.665 489.355 186.422 489.355 172.456V101.933H487.826V172.456ZM490.735 172.456C490.735 186.595 485.735 199.182 477.976 206.252C475.687 208.297 473.149 210.026 470.438 211.454C473.799 209.906 476.924 207.899 479.678 205.39C487.264 198.665 492.265 186.422 492.265 172.456V101.933H490.735V172.456ZM297.365 104.495C277.406 112.176 263.682 131.742 263.682 159.179C263.682 181.539 275.941 201.982 295.677 210.947C276.975 201.414 265.212 181.569 265.212 159.179C265.212 130.79 279.261 112.562 297.365 104.495ZM300.274 104.495C280.315 112.176 266.591 131.742 266.591 159.179C266.591 181.539 278.85 201.983 298.586 210.947C279.884 201.414 268.12 181.569 268.12 159.179C268.12 130.79 282.17 112.562 300.274 104.495ZM303.184 104.495C283.224 112.176 269.5 131.742 269.5 159.179C269.5 181.536 281.756 201.977 301.486 210.943C282.789 201.408 271.029 181.566 271.029 159.179C271.03 130.79 285.079 112.562 303.184 104.495ZM400.082 173.491C400.082 186.768 404.566 198.321 411.808 204.873C414.504 207.289 417.55 209.262 420.781 210.829C418.311 209.45 415.979 207.815 413.854 205.907C406.44 199.182 401.611 187.285 401.611 173.663V101.933H400.082V173.491ZM402.991 173.491C402.991 186.768 407.474 198.321 414.716 204.873C417.413 207.289 420.459 209.262 423.69 210.829C421.22 209.45 418.888 207.815 416.764 205.907C409.349 199.182 404.521 187.285 404.521 173.663V101.933H402.991V173.491ZM405.9 173.491C405.9 186.768 410.383 198.321 417.625 204.873C420.322 207.289 423.368 209.262 426.6 210.829C424.129 209.45 421.797 207.815 419.672 205.907C412.258 199.182 407.43 187.285 407.43 173.663V101.933H405.9V173.491ZM176.32 158.834H177.85V101.933H176.32V158.834ZM179.229 158.834H180.759V101.933H179.229V158.834ZM182.138 158.834H183.668V101.933H182.138V158.834ZM185.047 158.834H197.356C222.186 158.834 234.256 146.937 234.256 129.866C234.256 112.214 221.558 102.248 201.918 101.94L200.978 101.933H185.047V158.834ZM136.096 105.649C145.01 110.241 150.531 118.036 150.531 129.004C150.531 140.752 145.157 150.028 134.602 155.332C146.435 150.327 152.061 140.674 152.061 129.004C152.06 116.745 145.22 109.511 136.096 105.649ZM139.005 105.649C147.919 110.241 153.44 118.036 153.44 129.004C153.44 140.751 148.066 150.028 137.511 155.332C149.345 150.327 154.97 140.674 154.97 129.004C154.969 116.745 148.13 109.511 139.005 105.649ZM141.914 105.649C150.829 110.241 156.349 118.036 156.35 129.004C156.35 140.751 150.976 150.028 140.42 155.332C152.254 150.327 157.879 140.674 157.879 129.004C157.879 116.745 151.039 109.511 141.914 105.649ZM222.431 105.624C230.828 110.415 235.636 118.631 235.636 129.866C235.636 140.573 231.033 149.347 221.898 154.643C232.137 149.742 237.165 140.882 237.165 129.866C237.165 118.301 231.713 110.036 222.431 105.624ZM225.338 105.624C233.736 110.415 238.544 118.63 238.544 129.866C238.544 140.573 233.942 149.347 224.808 154.643C235.046 149.742 240.074 140.882 240.074 129.866C240.074 118.3 234.621 110.036 225.338 105.624ZM228.247 105.624C236.645 110.415 241.453 118.63 241.453 129.866C241.453 140.573 236.852 149.347 227.717 154.643C237.955 149.742 242.983 140.882 242.983 129.866C242.983 118.3 237.531 110.036 228.247 105.624ZM92.7285 4.97656H159.35L159.23 0.902344H160.068L161.147 19.3555H160.309L159.47 5.81543H126.519V84.1797H136.823V85.0186H115.255V84.1797H125.56V5.81543H92.7285L91.8896 19.3555H91.0508L92.1289 0.902344H92.9678L92.7285 4.97656ZM216.94 5.81543L216.462 19.5947H215.623L216.102 5.81543H177.399V42.7207H206.756V32.5361H207.595V53.8643H206.756V43.5596H177.399V84.1797H216.94L221.015 67.5244H221.854L217.66 85.0186H166.136V84.1797H176.44V5.81543H166.136V4.97656H216.94V5.81543ZM277.336 83.3408L309.449 4.97656H323.349V5.81543H310.887L316.878 84.1797H327.183V85.0186H305.974V84.1797H315.919L309.928 6.29492L277.936 84.4199H276.737L247.141 6.29492L240.071 84.1797H250.017V85.0186H228.808V84.1797H239.112L246.302 5.81543H233.841V4.97656H247.62L277.336 83.3408ZM358.958 4.97656C374.056 4.97656 385.319 11.5674 385.319 24.6279C385.319 37.2091 376.452 45.7162 359.198 46.3154L359.078 45.4766C376.333 44.9973 384.36 36.2506 384.36 24.6279C384.36 10.2494 370.82 5.81543 358.958 5.81543H346.137V84.1797H358.119V85.0186H334.754V84.1797H345.179V5.81543H334.754V4.97656H358.958ZM442.662 5.81543L442.183 19.5947H441.344L441.823 5.81543H403.12V42.7207H432.478V32.5361H433.316V53.8643H432.478V43.5596H403.12V84.1797H442.662L446.736 67.5244H447.575L443.381 85.0186H391.857V84.1797H402.162V5.81543H391.857V4.97656H442.662V5.81543ZM592.854 84H591.896L580.577 52.5469H546.548L535.165 84.1797H545.11V85.0186H525.1V84.9717C518.135 84.493 512.326 80.3093 509.169 75.9121C505.335 70.8794 497.545 59.3761 490.236 45.5967C487.96 46.0759 485.324 46.1963 482.568 46.1963H467.949V84.1797H479.932V85.0186H456.566V84.1797H466.991V5.81543H456.566V4.97656H485.084C499.822 4.97656 509.169 12.1662 509.169 25.2266C509.169 35.4114 503.178 43.08 491.315 45.4766C498.385 58.7768 505.574 69.8009 510.008 75.4326C513.123 79.6263 519.234 84.1795 526.423 84.1797H534.206L562.604 5.2168L564.162 4.1377L592.854 84ZM546.787 51.708H580.218L563.562 5.2168L546.787 51.708ZM467.949 45.3574H482.568C499.823 45.3573 508.21 37.089 508.21 25.2266C508.21 12.7653 499.103 5.81543 485.084 5.81543H467.949V45.3574Z" fill="black"/>
<path d="M529.003 115.189L551.925 136.854V217.392H522.145M510.717 99.3359C506.014 116.278 525.464 136.854 539.62 125.224C550.238 109.54 528.899 102.966 510.717 99.3359Z" stroke="black" stroke-width="1.17975"/>
<path d="M575.603 105.587L551.926 136.92V217.391H582.671M596.249 83C572.654 89.2113 540.815 108.133 562.928 122.527C585.041 136.92 600.378 102.199 596.249 83Z" stroke="black" stroke-width="1.17975"/>
<path d="M531.361 115.189L554.284 136.854V217.392H524.504M513.075 99.3359C508.373 116.278 527.822 136.854 541.979 125.224C552.597 109.54 531.258 102.966 513.075 99.3359Z" stroke="black" stroke-width="1.17975"/>
<path d="M577.963 105.587L554.286 136.92V217.391H585.03M598.608 83C575.014 89.2113 543.174 108.133 565.287 122.527C587.401 136.92 602.738 102.199 598.608 83Z" stroke="black" stroke-width="1.17975"/>
<path d="M533.721 115.189L556.644 136.854V217.392H526.864M515.435 99.3359C510.733 116.278 530.182 136.854 544.339 125.224C554.957 109.54 533.618 102.966 515.435 99.3359Z" stroke="black" stroke-width="1.17975"/>
<path d="M580.323 105.587L556.646 136.92V217.391H587.391M600.969 83C577.374 89.2113 545.534 108.133 567.648 122.527C589.761 136.92 605.098 102.199 600.969 83Z" stroke="black" stroke-width="1.17975"/>
<path d="M536.081 115.189L559.004 136.854V217.392H529.223M517.795 99.3359C513.092 116.278 532.542 136.854 546.698 125.224C557.316 109.54 535.977 102.966 517.795 99.3359Z" stroke="black" stroke-width="1.17975"/>
<path d="M582.682 105.587L559.004 136.92V217.391H589.749M603.327 83C579.732 89.2113 547.893 108.133 570.006 122.527C592.12 136.92 607.456 102.199 603.327 83Z" stroke="black" stroke-width="1.17975"/>
</svg>
